<svg version="1.1" viewBox="0 0 128 40" xmlns="http://www.w3.org/2000/svg">
 <path x="9.5367432e-06" y="0" width="127.99999" height="40" d="m1.3229 0h125.35a1.3229 1.3229 45 0 1 1.3229 1.3229v37.354a1.3229 1.3229 135 0 1-1.3229 1.3229h-125.35a1.3229 1.3229 45 0 1-1.3229-1.3229v-37.354a1.3229 1.3229 135 0 1 1.3229-1.3229z" fill="#404040" stroke-width=".11393"/>
 <g>
  <rect x="105" y="10" width="20" height="20" color="#000000" fill="none"/>
  <rect x="106.25" y="11.25" width="17.5" height="17.5" rx="8.75" ry="8.75" color="#000000" fill="#00ff02" stroke-width="0"/>
  <rect x="112.5" y="17.5" width="5" height="5" rx="2.4986" ry="2.5" color="#000000" fill="#fff"/>
 </g>
 <rect x="80" y="10" width="20" height="20" rx="1" ry="1" fill="none" stroke-width="0"/>
 <rect x="82" y="12" width="16" height="16" rx="1" ry="1" fill="#00ff02" stroke-width="3.7795"/>
 <path d="m93.578 15.781-4.7656 4.7813-2.3906-2.3906-1.5938 1.5938 2.3907 2.3906 1.5938 1.5937 1.5781-1.5937 4.7813-4.7813z" fill="#fff"/>
 <path x="5.2500038" y="4.2499928" width="67.620514" height="31.50001" d="m5.7792 4.25h66.562a0.52917 0.52917 45 0 1 0.52917 0.52917v30.442a0.52917 0.52917 135 0 1-0.52917 0.52917h-66.562a0.52917 0.52917 45 0 1-0.52917-0.52917v-30.442a0.52917 0.52917 135 0 1 0.52917-0.52917z" fill="#6b6b6b" fill-opacity=".6" stroke="#00ff02" stroke-linejoin="round" stroke-width=".26458" style="paint-order:normal"/>
 <text x="7.5152493" y="26.73324" fill="#ffffff" fill-opacity=".87" font-family="sans-serif" font-size="18.838px" stroke-width="1.1774" style="line-height:1.25" xml:space="preserve"><tspan x="7.5152493" y="26.73324" fill="#ffffff" fill-opacity=".87" font-size="18.838px" stroke-width="1.1774">Button</tspan></text>
</svg>
