<svg version="1.1" viewBox="0 0 128 40" xmlns="http://www.w3.org/2000/svg">
 <path d="m123 39.996c-6.5216 0-123 0.0045-123 0.0045l128-40v34.198c0 3.2119-2.229 5.7976-4.9978 5.7976z" fill="#f5f5f5" stroke-width="1.2671"/>
 <path d="m4.9978 0.00454c6.5216 0 123-0.00454 123-0.00454l-128 40v-34.198c0-3.2119 2.229-5.7976 4.9978-5.7976z" fill="#404040" stroke-width="1.2671"/>
 <rect x="105" y="10" width="20" height="20" color="#000000" fill="none"/>
 <rect x="106.25" y="11.25" width="17.5" height="17.5" rx="8.75" ry="8.75" color="#000000" fill="#00ff02" stroke-width="0"/>
 <rect x="112.5" y="17.5" width="5" height="5" rx="2.4986" ry="2.5" color="#000000" fill="#fff"/>
 <rect x="80" y="10" width="20" height="20" rx="1" ry="1" fill="none" stroke-width="0"/>
 <rect x="82" y="12" width="16" height="16" rx="1" ry="1" fill="#00ff02" stroke-width="0"/>
 <path d="m93.578 15.781-4.7656 4.7813-2.3906-2.3906-1.5938 1.5938 2.3907 2.3906 1.5937 1.5937 1.5781-1.5937 4.7813-4.7813z" fill="#fff"/>
 <path x="5.2499933" y="4.2500787" width="67.620514" height="31.50001" d="m5.7792 4.2501h66.562a0.52917 0.52917 45 0 1 0.52917 0.52917v30.442a0.52917 0.52917 135 0 1-0.52917 0.52917h-66.562a0.52917 0.52917 45 0 1-0.52917-0.52917v-30.442a0.52917 0.52917 135 0 1 0.52917-0.52917z" fill="#f2f2f2" stroke="#00ff02" stroke-linejoin="round" stroke-width=".26458" style="paint-order:normal"/>
 <text x="7.5152407" y="26.733324" fill="#000000" fill-opacity=".87059" font-family="sans-serif" font-size="18.838px" stroke-width="1.1774" style="line-height:1.25;mix-blend-mode:normal" xml:space="preserve"><tspan x="7.5152407" y="26.733324" fill="#000000" fill-opacity="1" font-size="18.838px" stroke-width="1.1774">Button</tspan></text>
</svg>
