<?xml version="1.0" encoding="UTF-8" standalone="no"?>
<!-- Created with Inkscape (http://www.inkscape.org/) -->

<svg
   xmlns:dc="http://purl.org/dc/elements/1.1/"
   xmlns:cc="http://creativecommons.org/ns#"
   xmlns:rdf="http://www.w3.org/1999/02/22-rdf-syntax-ns#"
   xmlns:svg="http://www.w3.org/2000/svg"
   xmlns="http://www.w3.org/2000/svg"
   xmlns:sodipodi="http://sodipodi.sourceforge.net/DTD/sodipodi-0.dtd"
   xmlns:inkscape="http://www.inkscape.org/namespaces/inkscape"
   width="2.3812573mm"
   height="2.3812504mm"
   viewBox="0 0 2.3812573 2.3812504"
   version="1.1"
   id="svg1813"
   inkscape:version="0.92.5 (2060ec1f9f, 2020-04-08)"
   sodipodi:docname="close-icon-unfocused.svg">
  <defs
     id="defs1807" />
  <sodipodi:namedview
     id="base"
     pagecolor="#ffffff"
     bordercolor="#666666"
     borderopacity="1.0"
     inkscape:pageopacity="0.0"
     inkscape:pageshadow="2"
     inkscape:zoom="52.904448"
     inkscape:cx="4.1966333"
     inkscape:cy="5.0643804"
     inkscape:document-units="mm"
     inkscape:current-layer="g4909"
     showgrid="false"
     inkscape:window-width="1903"
     inkscape:window-height="1018"
     inkscape:window-x="1"
     inkscape:window-y="28"
     inkscape:window-maximized="1" />
  <metadata
     id="metadata1810">
    <rdf:RDF>
      <cc:Work
         rdf:about="">
        <dc:format>image/svg+xml</dc:format>
        <dc:type
           rdf:resource="http://purl.org/dc/dcmitype/StillImage" />
        <dc:title />
      </cc:Work>
    </rdf:RDF>
  </metadata>
  <g
     inkscape:label="Layer 1"
     inkscape:groupmode="layer"
     id="layer1"
     transform="translate(-7.6924928,-33.352591)">
    <g
       transform="matrix(0.26458333,0,0,0.26458333,-319.43989,-42.062553)"
       style="display:inline;opacity:1"
       id="g4909">
      <g
         id="g4778-2-68"
         transform="matrix(2.9988343,0,0,2.9999146,1335.7606,367.45341)"
         style="fill:#ffffff;fill-opacity:1">
        <g
           style="display:inline;fill:#ffffff;fill-opacity:1"
           id="layer9-9-4-4"
           transform="translate(-60,-518)" />
        <g
           id="layer10-2-1-8"
           transform="translate(-60,-518)"
           style="fill:#ffffff;fill-opacity:1" />
        <g
           id="layer11-16-4-9"
           transform="translate(-60,-518)"
           style="fill:#ffffff;fill-opacity:1" />
        <g
           transform="matrix(0.75,0,0,0.75,2,2.0546875)"
           id="g2996-76-5"
           style="fill:#ffffff;fill-opacity:1">
          <g
             transform="translate(-60,-518)"
             id="layer12-4-5-7"
             style="fill:#ffffff;fill-opacity:1">
            <g
               transform="translate(19,-242)"
               id="layer4-4-1-9-5"
               style="display:inline;fill:#ffffff;fill-opacity:1" />
          </g>
        </g>
        <g
           id="layer13-2-6-11"
           transform="translate(-60,-518)"
           style="fill:#ffffff;fill-opacity:1" />
        <g
           id="layer14-4-0-33"
           transform="translate(-60,-518)"
           style="fill:#ffffff;fill-opacity:1" />
        <g
           id="layer15-7-3-0"
           transform="translate(-60,-518)"
           style="fill:#ffffff;fill-opacity:1" />
      </g>
      <path
         style="color:#bebebe;font-style:normal;font-variant:normal;font-weight:normal;font-stretch:normal;font-size:medium;line-height:normal;font-family:'Andale Mono';-inkscape-font-specification:'Andale Mono';text-indent:0;text-align:start;text-decoration:none;text-decoration-line:none;letter-spacing:normal;word-spacing:normal;text-transform:none;writing-mode:lr-tb;direction:ltr;text-anchor:start;display:inline;overflow:visible;visibility:visible;opacity:1;fill:#808080;fill-opacity:1;fill-rule:nonzero;stroke:none;stroke-width:2.6713202;marker:none;enable-background:new"
         d="m 1236.4105,285.03388 h 1.1245 c 0.015,-9e-5 0.024,-5.4e-4 0.034,0 0.2868,0.0129 0.5733,0.14461 0.7732,0.35155 l 2.5654,2.56634 2.6005,-2.56634 c 0.2987,-0.25929 0.5024,-0.34368 0.7731,-0.35155 h 1.1247 v 1.12496 c 0,0.32228 -0.038,0.61947 -0.2812,0.84373 l -2.5653,2.56635 2.5302,2.53116 c 0.2116,0.21168 0.3163,0.51012 0.3163,0.80857 v 1.12497 h -1.1247 c -0.2983,-10e-6 -0.5965,-0.10474 -0.8083,-0.3164 l -2.5653,-2.56632 -2.5654,2.56632 c -0.2117,0.21172 -0.5099,0.3164 -0.8083,0.3164 h -1.1245 v -1.12497 c 0,-0.29844 0.1047,-0.59689 0.3162,-0.80857 l 2.5655,-2.53116 -2.5655,-2.56635 c -0.2369,-0.21896 -0.3408,-0.5279 -0.3162,-0.84373 v -1.12496 z"
         id="path2606"
         inkscape:connector-curvature="0" />
    </g>
  </g>
</svg>
