<?xml version="1.0" encoding="UTF-8" standalone="no"?>
<!-- Created with Inkscape (http://www.inkscape.org/) -->

<svg
   xmlns:dc="http://purl.org/dc/elements/1.1/"
   xmlns:cc="http://creativecommons.org/ns#"
   xmlns:rdf="http://www.w3.org/1999/02/22-rdf-syntax-ns#"
   xmlns:svg="http://www.w3.org/2000/svg"
   xmlns="http://www.w3.org/2000/svg"
   xmlns:xlink="http://www.w3.org/1999/xlink"
   xmlns:sodipodi="http://sodipodi.sourceforge.net/DTD/sodipodi-0.dtd"
   xmlns:inkscape="http://www.inkscape.org/namespaces/inkscape"
   width="6.3499999mm"
   height="3.175mm"
   viewBox="0 0 6.3499998 3.175"
   version="1.1"
   id="svg831"
   sodipodi:docname="menu_unfocused_prelight.svg"
   inkscape:version="0.92.5 (2060ec1f9f, 2020-04-08)">
  <defs
     id="defs825">
    <linearGradient
       id="linearGradient2039"
       inkscape:collect="always">
      <stop
         id="stop2035"
         offset="0"
         style="stop-color:#cccccc;stop-opacity:1" />
      <stop
         id="stop2037"
         offset="1"
         style="stop-color:#f9f9f9;stop-opacity:1" />
    </linearGradient>
    <linearGradient
       inkscape:collect="always"
       xlink:href="#linearGradient971"
       id="linearGradient973"
       x1="147.38531"
       y1="321.25824"
       x2="147.38531"
       y2="282.65732"
       gradientUnits="userSpaceOnUse"
       gradientTransform="matrix(0.02968474,0,0,0.03275793,24.975214,72.817054)" />
    <linearGradient
       inkscape:collect="always"
       id="linearGradient971">
      <stop
         style="stop-color:#e6e6e6;stop-opacity:1"
         offset="0"
         id="stop967" />
      <stop
         style="stop-color:#ffffff;stop-opacity:1"
         offset="1"
         id="stop969" />
    </linearGradient>
    <linearGradient
       inkscape:collect="always"
       xlink:href="#linearGradient979"
       id="linearGradient981"
       x1="40.130493"
       y1="42.908974"
       x2="40.130493"
       y2="58.899273"
       gradientUnits="userSpaceOnUse"
       gradientTransform="translate(14.552083,29.104166)" />
    <linearGradient
       inkscape:collect="always"
       id="linearGradient979">
      <stop
         style="stop-color:#5599ff;stop-opacity:1"
         offset="0"
         id="stop975" />
      <stop
         style="stop-color:#d5e5ff;stop-opacity:1"
         offset="1"
         id="stop977" />
    </linearGradient>
    <linearGradient
       inkscape:collect="always"
       xlink:href="#linearGradient2039"
       id="linearGradient2033"
       gradientUnits="userSpaceOnUse"
       gradientTransform="matrix(0.11219407,0,0,0.1238095,25.04837,77.962161)"
       x1="40.130493"
       y1="42.908974"
       x2="40.130493"
       y2="58.899273" />
  </defs>
  <sodipodi:namedview
     id="base"
     pagecolor="#ffffff"
     bordercolor="#666666"
     borderopacity="1.0"
     inkscape:pageopacity="0.0"
     inkscape:pageshadow="2"
     inkscape:zoom="10.429973"
     inkscape:cx="-6.2590168"
     inkscape:cy="-1.5235776"
     inkscape:document-units="mm"
     inkscape:current-layer="layer1"
     showgrid="false"
     inkscape:window-width="1904"
     inkscape:window-height="1006"
     inkscape:window-x="0"
     inkscape:window-y="32"
     inkscape:window-maximized="1"
     showguides="false" />
  <metadata
     id="metadata828">
    <rdf:RDF>
      <cc:Work
         rdf:about="">
        <dc:format>image/svg+xml</dc:format>
        <dc:type
           rdf:resource="http://purl.org/dc/dcmitype/StillImage" />
      </cc:Work>
    </rdf:RDF>
  </metadata>
  <g
     inkscape:label="Layer 1"
     inkscape:groupmode="layer"
     id="layer1"
     transform="translate(-26.458332,-82.158331)">
    <g
       id="g882"
       transform="matrix(1.0434782,0,0,0.92307701,-1.1503615,6.564093)">
      <path
         inkscape:connector-curvature="0"
         id="path2030"
         d="m 28.024199,81.89375 c -0.86358,0 -1.565866,0.77088 -1.565866,1.719792 0,0.948911 0.702282,1.719791 1.565866,1.719791 0.07203,0 0.142764,-0.0059 0.211852,-0.01619 h 2.530213 c 0.06908,0.01028 0.139529,0.01619 0.211562,0.01619 0.863584,0 1.565924,-0.77088 1.565924,-1.719791 0,-0.948912 -0.702344,-1.719792 -1.565924,-1.719792 -0.07081,0 -0.139979,0.0063 -0.20791,0.01619 h -2.53775 -6.39e-4 c -0.06773,-0.0099 -0.136749,-0.01619 -0.207328,-0.01619 z"
         style="color:#000000;font-style:normal;font-variant:normal;font-weight:normal;font-stretch:normal;font-size:medium;line-height:normal;font-family:sans-serif;font-variant-ligatures:normal;font-variant-position:normal;font-variant-caps:normal;font-variant-numeric:normal;font-variant-alternates:normal;font-feature-settings:normal;text-indent:0;text-align:start;text-decoration:none;text-decoration-line:none;text-decoration-style:solid;text-decoration-color:#000000;letter-spacing:normal;word-spacing:normal;text-transform:none;writing-mode:lr-tb;direction:ltr;text-orientation:mixed;dominant-baseline:auto;baseline-shift:baseline;text-anchor:start;white-space:normal;shape-padding:0;clip-rule:nonzero;display:inline;overflow:visible;visibility:visible;opacity:1;isolation:auto;mix-blend-mode:normal;color-interpolation:sRGB;color-interpolation-filters:linearRGB;solid-color:#000000;solid-opacity:1;vector-effect:none;fill:#666666;fill-opacity:1;fill-rule:nonzero;stroke:none;stroke-width:0.15592715;stroke-linecap:butt;stroke-linejoin:miter;stroke-miterlimit:4;stroke-dasharray:none;stroke-dashoffset:0;stroke-opacity:1;color-rendering:auto;image-rendering:auto;shape-rendering:auto;text-rendering:auto;enable-background:accumulate" />
      <path
         inkscape:connector-curvature="0"
         id="path938"
         d="m 28.024221,81.97565 c -0.823655,0 -1.491619,0.733455 -1.491619,1.637865 0,0.904411 0.667964,1.637929 1.491619,1.637929 0.07081,0 0.140369,-0.0058 0.208556,-0.01629 h 2.536589 c 0.06819,0.01051 0.137742,0.01629 0.208556,0.01629 0.823654,0 1.491617,-0.733518 1.491617,-1.637929 0,-0.90441 -0.667963,-1.637865 -1.491617,-1.637865 -0.07036,0 -0.139465,0.0058 -0.207229,0.0161 H 28.23145 c -0.06776,-0.0104 -0.136874,-0.0161 -0.207229,-0.0161 z"
         style="opacity:1;fill:url(#linearGradient2033);fill-opacity:1;stroke:none;stroke-width:0.15591733;stroke-miterlimit:4;stroke-dasharray:none;stroke-opacity:1" />
      <path
         inkscape:connector-curvature="0"
         id="path956"
         d="m 27.943747,82.053445 c -0.33694,0 -0.610509,0.301635 -0.610509,0.673457 0,0.371822 0.273569,0.673713 0.610509,0.673713 0.04878,0 0.09616,-0.0065 0.141641,-0.0185 h 2.68508 c 0.04548,0.01195 0.09286,0.0185 0.14164,0.0185 0.33694,0 0.610508,-0.301891 0.610508,-0.673713 0,-0.371822 -0.273568,-0.673457 -0.610508,-0.673457 -0.04869,0 -0.09601,0.0065 -0.141407,0.01837 h -2.685545 c -0.04541,-0.0119 -0.09271,-0.01837 -0.141409,-0.01837 z"
         style="opacity:1;fill:url(#linearGradient973);fill-opacity:1;stroke:none;stroke-width:0.15591748;stroke-miterlimit:4;stroke-dasharray:none;stroke-opacity:1" />
    </g>
    <g
       transform="matrix(1.0434782,0,0,0.92307701,90.235763,7.8283135)"
       id="layer1-6"
       inkscape:label="Layer 1">
      <path
         style="display:inline;opacity:1;fill:#000000;fill-opacity:1;stroke:#000000;stroke-width:0.09913811;stroke-miterlimit:4;stroke-dasharray:none;stroke-opacity:1"
         sodipodi:nodetypes="ccscsccsscscc"
         id="rect6014-1-6-3-5-9"
         d="m -58.07733,82.978335 1.464611,-0.966231 c 0.05016,-0.03895 0.07203,-0.09187 0.07203,-0.142679 v -0.369637 h -0.38416 c -0.06547,0 -0.133849,0.01689 -0.184014,0.05592 l -0.968467,0.683353 -0.968469,-0.683353 c -0.05198,-0.03668 -0.118546,-0.05592 -0.184012,-0.05592 h -0.38416 v 0.369637 c 0,0.05082 0.02187,0.103738 0.07203,0.142679 z"
         inkscape:connector-curvature="0" />
    </g>
  </g>
</svg>
