<svg width="512" height="60" version="1.1" viewBox="0 0 135.47 15.875" xmlns="http://www.w3.org/2000/svg">
 <g transform="translate(-17.67 -58.498)">
  <rect x="17.67" y="58.498" width="135.47" height="15.875" fill="#00ff01" fill-rule="evenodd" opacity=".3"/>
  <g transform="matrix(.033073 0 0 .033073 18.464 57.969)">
   <path d="m48 96c-1.5581 0-3.077 0.16049-4.5508 0.44141-0.0025 4.79e-4 -0.0053-4.79e-4 -0.0078 0-9.6234 1.8375-17.163 9.3766-19 19-4.91e-4 3e-3 4.91e-4 5e-3 0 8e-3 -0.28093 1.4736-0.44142 2.9925-0.44142 4.5506v352c0 13.296 10.704 24 24 24s24-10.704 24-24v-294.06l271.59 271.59c9.4017 9.4017 24.54 9.4017 33.941 0s9.4017-24.54 0-33.941l-312.24-312.24c-2.3054-2.3952-5.0995-4.3093-8.2344-5.582-0.01745-0.0071-0.03527-0.01246-0.05273-0.01953-1.3942-0.56221-2.8498-1.0025-4.3613-1.2969-0.05651-0.0111-0.11335-0.0147-0.16992-0.02539-1.4366-0.2692-2.9153-0.42495-4.4316-0.42774-0.01044-1e-5 -0.02081-2e-3 -0.03125-2e-3 -0.0046-3e-6 -0.0091 0-0.01367 0z" fill="#046a38" stroke-width="1.1546"/>
   <path d="m464 96c-7.4096 0-14.009 3.3297-18.404 8.5742-0.47968 0.43144-0.96445 0.85312-1.4277 1.3164l-304.9 304.9c-11.517 11.517-13.222 28.358-3.8203 37.76s26.243 7.6969 37.76-3.8203l266.79-266.79v294.06c0 13.296 10.704 24 24 24s24-10.704 24-24v-352c0-0.41749-0.0416-0.8242-0.0625-1.2363 0.30856-6.3169-1.6309-12.313-6.0098-16.691-4.3789-4.3789-10.375-6.3183-16.691-6.0098-0.41213-0.02086-0.81884-0.0625-1.2363-0.0625z" fill="#ff671f" stroke-width="1.1546"/>
   <path d="m254 16v0.0508c-7.1904 0.14791-14.188 1.0792-20.908 2.7285l-8e-3 -0.0273-0.76953 0.20703c-0.31739 0.0807-0.63114 0.17004-0.94726 0.25391l-0.21485 0.0566-1.9316 0.51758 8e-3 0.0332c-6.8367 1.9859-13.363 4.6959-19.48 8.0703l-0.0176-0.0293-1.7305 1-1.7324 1 0.0137 0.0234c-6.0405 3.6683-11.627 8.0024-16.699 12.869l-0.0508-0.0508-2.8281 2.8281 0.0508 0.0508c-4.8667 5.0722-9.2008 10.659-12.869 16.699l-0.0234-0.01367-1 1.7324-1 1.7305 0.0293 0.01758c-3.3744 6.117-6.0844 12.644-8.0703 19.48l-0.0332-0.0078-0.51758 1.9316-0.0566 0.21484c-0.0839 0.31612-0.1732 0.62988-0.25391 0.94727l-0.20703 0.76953 0.0273 0.0078c-1.6493 6.7207-2.5806 13.718-2.7285 20.908h-0.0508v4h0.0508c0.14789 7.1897 1.0795 14.186 2.7285 20.906l-0.0273 8e-3 0.20313 0.75781c0.0845 0.33242 0.17768 0.66116 0.26562 0.99219l0.0488 0.18164 0.51758 1.9316 0.0312-8e-3c1.9858 6.837 4.6978 13.363 8.0723 19.48l-0.0293 0.0176 1 1.7324 1 1.7305 0.0234-0.0137c3.6682 6.0406 8.0024 11.627 12.869 16.699l-0.0508 0.0508 2.8282 2.8282 0.0508-0.0508c5.0721 4.8667 10.657 9.2028 16.697 12.871l-0.0117 0.0215 1.7324 1 1.7305 1 0.0156-0.0293c6.1177 3.375 12.645 6.0861 19.482 8.0723l-8e-3 0.0312 1.9316 0.51758 0.0957 0.0254c0.37334 0.0996 0.74404 0.20563 1.1192 0.30078l0.71679 0.19141 6e-3 -0.0254c6.7213 1.6496 13.719 2.5806 20.91 2.7285v0.0508h4v-0.0508c7.1904-0.14791 14.188-1.0792 20.908-2.7285l6e-3 0.0254 0.70508-0.18946c0.39017-0.0989 0.7758-0.20881 1.1641-0.3125 0.0208-6e-3 0.0417-0.0101 0.0625-0.0156l1.9316-0.51757-8e-3 -0.0312c6.8374-1.9859 13.365-4.6956 19.482-8.0703l0.0156 0.0273 1.7324-1 1.7305-1-0.0117-0.0215c6.0404-3.6683 11.627-8.0024 16.699-12.869l0.0488 0.0488 2.8281-2.8281-0.0488-0.0488c4.8667-5.0722 9.2008-10.659 12.869-16.699l0.0215 0.0117 1-1.7305 1-1.7324-0.0274-0.0156c3.3747-6.1176 6.0844-12.645 8.0703-19.482l0.0312 8e-3 0.51758-1.9316 0.0156-0.0625c0.10369-0.38825 0.21358-0.77389 0.3125-1.1641l0.18945-0.70508-0.0254-6e-3c1.6493-6.7207 2.5806-13.718 2.7285-20.908h0.0508v-4h-0.0508c-0.14793-7.191-1.0789-14.189-2.7285-20.91l0.0254-0.0059-0.1914-0.7168c-0.0952-0.3751-0.20122-0.74581-0.30079-1.1191l-0.0254-0.0957-0.51758-1.9316-0.0312 0.0078c-1.9861-6.8376-4.6972-13.365-8.0723-19.482l0.0293-0.01563-1-1.7305-1-1.7324-0.0215 0.01172c-3.6683-6.0403-8.0044-11.625-12.871-16.697l0.0508-0.0508-2.8281-2.8281-0.0508 0.0508c-5.0724-4.8667-10.659-9.2009-16.699-12.869l0.0137-0.0234-1.7305-1-1.7324-1-0.0176 0.0293c-6.1173-3.3744-12.643-6.0865-19.48-8.0723l8e-3 -0.0312-1.9316-0.51758-0.18164-0.0488c-0.33103-0.0879-0.65977-0.18115-0.99219-0.26562l-0.75781-0.20313-8e-3 0.0273c-6.7201-1.649-13.717-2.5806-20.906-2.7285v-0.0508h-2zm0 7.7305v73.082l-18.924-70.623c6.0849-1.4757 12.416-2.3143 18.924-2.459zm4 0c6.5065 0.14466 12.838 0.9817 18.922 2.457l-18.922 70.617zm-26.787 3.4922 18.924 70.623-36.568-63.336c5.5439-3.0389 11.456-5.484 17.645-7.2871zm49.572 0c6.1885 1.803 12.101 4.2465 17.645 7.2852l-36.568 63.338zm-70.682 9.2832 36.57 63.34-51.695-51.695c4.6001-4.3972 9.6588-8.3173 15.125-11.645zm91.791 0c5.4657 3.327 10.525 7.2477 15.125 11.645l-51.695 51.695zm-109.74 14.473 51.695 51.695-63.34-36.57c3.3272-5.4662 7.2473-10.525 11.645-15.125zm127.7 0c4.3973 4.6002 8.3173 9.6586 11.645 15.125l-63.34 36.57zm-141.34 18.59 63.336 36.568-70.623-18.924c1.8032-6.1887 4.2482-12.101 7.2871-17.645zm154.98 0c3.0388 5.5439 5.484 11.456 7.2871 17.645l-70.623 18.924zm-163.3 21.508 70.623 18.924h-73.082c0.14467-6.5073 0.98332-12.839 2.459-18.924zm171.62 0c1.4756 6.0849 2.3143 12.417 2.459 18.924h-73.082zm-174.08 22.924h73.074l-70.617 18.922c-1.4753-6.0841-2.3124-12.415-2.457-18.922zm103.46 0h73.074c-0.14466 6.5065-0.98178 12.838-2.457 18.922zm-29.348 3.8613-63.338 36.568c-3.0386-5.5437-5.4822-11.456-7.2852-17.645zm28.307 0 70.623 18.924c-1.8029 6.1885-4.2466 12.101-7.2852 17.645zm-26.307 3.4629-51.695 51.695c-4.3968-4.5997-8.3175-9.6593-11.645-15.125zm24.307 0 63.34 36.57c-3.327 5.4659-7.2457 10.527-11.643 15.127zm-21.479 2.8281-36.57 63.34c-5.4664-3.3272-10.525-7.2473-15.125-11.645zm18.65 0 51.697 51.697c-4.5998 4.3969-9.661 8.3156-15.127 11.643zm-15.188 2-18.924 70.623c-6.1887-1.8031-12.101-4.2483-17.645-7.2871zm11.725 0 36.568 63.338c-5.5437 3.0385-11.456 5.4823-17.645 7.2852zm-7.8613 1.0332v73.082c-6.5073-0.14467-12.839-0.98338-18.924-2.459zm4 8e-3 18.922 70.617c-6.0841 1.4753-12.415 2.3124-18.922 2.457z" fill="#06038d"/>
  </g>
  <g fill="#3d3d3d">
   <g>
    <path d="m145.2 60.086a6.35 6.35 0 0 0-6.35 6.35 6.35 6.35 0 0 0 6.35 6.35 6.35 6.35 0 0 0 6.35-6.35 6.35 6.35 0 0 0-6.35-6.35zm-0.016 2.9216c0.85928 0 1.5999 0.58196 1.5999 1.6938 0 0.7231-0.34 1.4588-0.78312 1.9153h4e-3c-0.17 0.5168 0.1024 0.63793 0.1452 0.65201 1.03 0.35388 2.3324 1.2368 2.3032 2.5957h-6.5095c-0.028-1.4224 1.6213-2.3998 2.2272-2.5957 0.0648-0.0236 0.376-0.19256 0.202-0.64846-0.44588-0.45535-0.78316-1.1927-0.78316-1.9189 0-1.1121 0.7348-1.6938 1.5946-1.6938z" stroke-width="1.0583"/>
    <g transform="matrix(.02594 0 0 .029118 79.946 57.685)">
     <g fill="#3d3d3d">
      <g fill="#3d3d3d">
       <g transform="translate(973.09,-210.4)" fill="#3d3d3d">
        <path d="m-456.7 534.13c-49.553 0-96.331 21.852-128.34 59.948-9.93 11.811-8.402 29.434 3.428 39.363 5.234 4.396 11.605 6.557 17.958 6.557 7.973 0 15.891-3.39 21.405-9.966 21.368-25.429 52.552-40.016 85.544-40.016s64.177 14.587 85.544 40.016c5.533 6.595 13.45 9.966 21.405 9.966 6.353 0 12.724-2.142 17.958-6.557 11.83-9.93 13.357-27.553 3.428-39.363-32.005-38.096-78.783-59.948-128.34-59.948z"/>
        <path d="m-456.71 411.21c-82.545 0-160.49 36.419-213.88 99.926-9.929 11.811-8.402 29.434 3.428 39.363 5.234 4.396 11.605 6.558 17.958 6.558 7.973 0 15.891-3.391 21.405-9.967 42.716-50.838 105.09-79.993 171.09-79.993s128.37 29.155 171.11 79.993c5.533 6.595 13.45 9.967 21.404 9.967 6.353 0 12.724-2.143 17.959-6.558 11.829-9.929 13.356-27.57 3.428-39.363-53.41-63.506-131.35-99.926-213.9-99.926z"/>
        <path d="m-157.26 432.77c-74.739-88.935-183.89-139.92-299.44-139.92s-224.69 50.988-299.44 139.92c-9.93 11.811-8.402 29.434 3.428 39.363 5.234 4.396 11.587 6.558 17.939 6.558 7.973 0 15.891-3.391 21.423-9.967 64.084-76.248 157.64-119.99 256.65-119.99s192.57 43.741 256.65 119.97c5.533 6.576 13.45 9.967 21.424 9.967 6.353 0 12.724-2.143 17.958-6.558 11.811-9.912 13.34-27.553 3.41-39.345z"/>
        <path d="m-502.73 682.98c0 25.406 20.62 46.025 46.025 46.025s46.025-20.619 46.025-46.025c-7.7755-65.326-90.569-48.667-92.049 0z"/>
       </g>
      </g>
     </g>
    </g>
    <g stroke-width=".12868">
     <path d="m110.27 60.086c-0.18238 0-0.34022 0.06627-0.47351 0.19844l-3.5044 3.4779h-2.7571c-0.18251 0-0.34035 0.06627-0.47364 0.19844-0.1333 0.13229-0.19995 0.28906-0.19995 0.47007v4.0104c0 0.181 0.0667 0.33778 0.19995 0.46994 0.13342 0.13229 0.29126 0.19856 0.47364 0.19856h2.757l3.5044 3.4779c0.13329 0.13216 0.29113 0.19844 0.47351 0.19844 0.18251 0 0.34035-0.06627 0.47365-0.19844 0.13329-0.13216 0.19994-0.28894 0.19994-0.46994v-11.363c0-0.181-0.0667-0.33778-0.19981-0.47007-0.13343-0.13216-0.29114-0.19844-0.47365-0.19844z"/>
     <path d="m114.54 67.914c0.29824-0.45597 0.4473-0.94846 0.4473-1.4776 0-0.52916-0.14906-1.024-0.4473-1.4835-0.29836-0.45956-0.6927-0.78323-1.1839-0.97128-0.0701-0.03474-0.15797-0.05217-0.26311-0.05217-0.18238 0-0.34035 0.06448-0.47352 0.19318-0.13316 0.12883-0.20007 0.28727-0.20007 0.47519 0 0.14626 0.0421 0.26984 0.12645 0.37085 0.0842 0.10101 0.18587 0.18805 0.30522 0.26112 0.11908 0.07307 0.23843 0.15318 0.35778 0.24022s0.221 0.21061 0.30521 0.37072c0.084 0.16024 0.1262 0.35867 0.1262 0.59544s-0.0421 0.4352-0.1262 0.59544c-0.0842 0.16024-0.18586 0.28368-0.30521 0.37085-0.11935 0.08704-0.2387 0.16716-0.35778 0.24022-0.11935 0.07294-0.221 0.16011-0.30522 0.26099-0.0842 0.10114-0.12645 0.22459-0.12645 0.37085 0 0.18805 0.0669 0.34636 0.20007 0.47519 0.13317 0.12883 0.29114 0.19331 0.47352 0.19331 0.10514 0 0.19297-0.01743 0.26311-0.05204 0.49121-0.19523 0.88567-0.52083 1.1839-0.97692z"/>
     <path d="m116.79 69.386c0.59635-0.90155 0.89459-1.885 0.89459-2.9504s-0.29824-2.0487-0.89459-2.9508c-0.59635-0.90155-1.3858-1.5577-2.3678-1.9686-0.0911-0.03474-0.18238-0.05217-0.27344-0.05217-0.18238 0-0.34035 0.06614-0.47377 0.19844-0.13317 0.13229-0.19982 0.28894-0.19982 0.46994 0 0.27163 0.13679 0.47699 0.41048 0.61633 0.39279 0.2019 0.65939 0.35508 0.79966 0.45943 0.51924 0.3761 0.9243 0.84771 1.2154 1.4152 0.29114 0.56749 0.43671 1.1715 0.43671 1.8121s-0.14557 1.2446-0.43671 1.8121c-0.29113 0.56762-0.69632 1.0391-1.2154 1.4151-0.14027 0.10447-0.40687 0.25766-0.79966 0.45956-0.27369 0.13934-0.41048 0.3447-0.41048 0.61633 0 0.181 0.0667 0.33778 0.19982 0.46994 0.13342 0.13242 0.29462 0.19856 0.4841 0.19856 0.0842 0 0.17205-0.01756 0.26311-0.05217 0.98204-0.41097 1.7715-1.0672 2.3678-1.9688z"/>
    </g>
    <path d="m120.05 61.144c-0.42862 0-0.77603 0.35061-0.77603 0.78035v9.0226c0 0.43166 0.34741 0.78035 0.77603 0.78035h15.054c0.42923 0 0.77603-0.34933 0.77603-0.78035v-1.6019h0.60911c0.42924 0 0.77603-0.34746 0.77603-0.78035v-4.1904c6.7e-4 -0.43163-0.34679-0.78329-0.77603-0.78329h-0.60911v-1.6667c0-0.42973-0.34677-0.78035-0.77603-0.78035zm1.2446 1.2662h12.159c0.37758 0 0.68525 0.30349 0.68525 0.68317v6.6845c0 0.37968-0.30767 0.68317-0.68525 0.68317h-12.159c-0.37758 0-0.67939-0.30349-0.67939-0.68317v-6.6845c0-0.37968 0.30181-0.68317 0.67939-0.68317z" stroke-width="1.2887"/>
   </g>
   <path d="m127.36 62.409-6.4041 0.0031c-0.19059 0-0.34315 0.30348-0.34315 0.68315v6.6844c0 0.37967 0.15258 0.68316 0.34315 0.68315h6.4041z" fill-opacity=".66667" stroke-width=".91558"/>
   <path d="m127.36 62.412v8.0508h6.031c0.39895 9e-6 0.7183-0.3035 0.7183-0.68317v-6.6845c0-0.37968-0.31938-0.68317-0.7183-0.68317z" fill-opacity=".15686" stroke-width="1.3246"/>
  </g>
  <path d="m124.99 62.409v0.0031l2.3896-0.0031z" fill="#bebebe" fill-opacity=".66667" stroke-width="1.0665"/>
  <g transform="matrix(.11748 0 0 .11947 61.656 48.884)">
   <path d="m118.68 80.5a67.733 67.733 0 0 0-9.4912 1.076l-2.6537 15.782a52.917 52.917 0 0 0-0.026 0.0087c-8e-5 0.0044-2.5e-4 0.0087-8.7e-4 0.01298a52.917 52.917 0 0 0-19.077 10.025l-14.502-6.7704a67.733 67.733 0 0 0-6.2829 7.1995 67.733 67.733 0 0 0-5.0765 8.0912l10.685 11.915a52.917 52.917 0 0 0-0.0095 0.0256c0.0033 3e-3 0.0064 5e-3 0.0096 8e-3a52.917 52.917 0 0 0-4.0563 21.165l-14.336 7.1172a67.733 67.733 0 0 0 1.7115 9.4007l1.9e-5 5.1e-4a67.733 67.733 0 0 0 3.1608 9.0135l15.978-0.92404a52.917 52.917 0 0 0 0.01426 0.0233c0.0042-7.9e-4 0.0082-2e-3 0.01234-2e-3a52.917 52.917 0 0 0 14.019 16.368l-3.3742 15.645a67.733 67.733 0 0 0 8.4168 4.5237l4.97e-4 -5.3e-4a67.733 67.733 0 0 0 9.0182 3.149l9.2389-13.068a52.917 52.917 0 0 0 0.0271 4e-3c3e-3 -4e-3 3e-3 -8e-3 6e-3 -0.0117a52.917 52.917 0 0 0 21.538-0.75418l10.129 12.393a67.733 67.733 0 0 0 8.7842-3.7603l-3e-5 -1e-3a67.733 67.733 0 0 0 8.0842-5.087l-4.4557-15.371a52.917 52.917 0 0 0 0.02-0.0188c-1e-3 -4e-3 -4e-3 -8e-3 -5e-3 -0.0117a52.917 52.917 0 0 0 12.839-17.309l16.004-0.19175a67.733 67.733 0 0 0 2.5372-9.2125l-9.8e-4 -4.8e-4a67.733 67.733 0 0 0 1.0636-9.4924l-14.796-6.0999a52.917 52.917 0 0 0-2e-3 -0.0279c-5e-3 -2e-3 -9e-3 -2e-3 -0.0126-4e-3a52.917 52.917 0 0 0-5.5274-20.829l9.8286-12.632a67.733 67.733 0 0 0-5.6206-7.7274l-9.8e-4 -4.9e-4a67.733 67.733 0 0 0-6.7587-6.7497l-13.994 7.7645a52.917 52.917 0 0 0-0.0228-0.0157c-4e-3 2e-3 -8e-3 6e-3 -0.0106 8e-3a52.917 52.917 0 0 0-19.737-8.665l-3.7487-15.56a67.733 67.733 0 0 0-9.5461-0.42313zm1.225 46.585a21.167 21.167 0 0 1 8.1296 1.1557l0.0603-6e-3 0.0157 6e-3 0.0434 0.0441a21.167 21.167 0 0 1 12.848 12.934l0.0424 0.0425 5e-3 0.0158-7e-3 0.0614a21.167 21.167 0 0 1-2.1025 18.109l-7e-3 0.0598-0.01 0.0148-0.0516 0.0323a21.167 21.167 0 0 1-15.469 9.6475l-0.0516 0.0317-0.016 1e-3 -0.0587-0.0212a21.167 21.167 0 0 1-17.187-6.0784l-0.057-0.0202-0.0124-0.013-0.0195-0.0567a21.167 21.167 0 0 1-5.9637-17.228l-0.0195-0.0567 2e-3 -0.0182 0.0324-0.0508a21.167 21.167 0 0 1 9.7504-15.404l0.0324-0.0508 0.0167-9e-3 0.0602-7e-3a21.167 21.167 0 0 1 9.9932-3.1355z" fill-opacity=".25098"/>
   <g>
    <path d="m120.91 80.571a67.733 67.733 0 0 0-9.5229 0.74414l-3.2029 15.68a52.917 52.917 0 0 0-0.0263 0.0078c-5.3e-4 0.01024-2e-3 0.01971-2e-3 0.02997l-8.2005 48.132 0.06305-0.092a21.167 21.167 0 0 1 10.282-15.054l0.0341-0.0496 42.744-23.599a52.917 52.917 0 0 0-19.439-9.3623l-3.2034-15.681a67.733 67.733 0 0 0-9.5255-0.75603z" fill="#f00"/>
    <path d="m120.91 80.571a67.733 67.733 0 0 0-9.5229 0.74414l-3.2029 15.68a52.917 52.917 0 0 0-0.0263 0.0078c-5.3e-4 0.01024-2e-3 0.01971-2e-3 0.02997l-8.2005 48.132 0.06305-0.092a21.167 21.167 0 0 1 10.282-15.054l0.0341-0.0496 42.744-23.599a52.917 52.917 0 0 0-19.439-9.3623l-3.2034-15.681a67.733 67.733 0 0 0-9.5255-0.75603z" fill="#f92300"/>
    <path d="m67.959 106.07a67.733 67.733 0 0 0-5.3557 7.9092l10.262 12.281a52.917 52.917 0 0 0-0.01037 0.0254c0.0077 7e-3 0.01442 0.0135 0.02211 0.0203l32.518 36.422-0.0326-0.10664a21.167 21.167 0 0 1-5.3591-17.425l-0.01752-0.0576 8.2006-48.132a52.917 52.917 0 0 0-19.44 9.3608l-14.257-7.2727a67.733 67.733 0 0 0-6.5302 6.9759z" fill="#991dc3"/>
    <path d="m54.879 163.37a67.733 67.733 0 0 0 2.8444 9.1186l16-0.36625a52.917 52.917 0 0 0 0.01339 0.024c0.01027-2e-3 0.01955-3e-3 0.02966-5e-3l48.75-2.7145-0.1037-0.041a21.167 21.167 0 0 1-16.965-6.6747l-0.056-0.0222-32.518-36.421a52.917 52.917 0 0 0-4.8022 21.035l-14.575 6.6122a67.733 67.733 0 0 0 1.3824 9.455z" fill="#1d4dcc"/>
    <path d="m91.524 209.33a67.733 67.733 0 0 0 8.9026 3.4617l9.6895-12.737a52.917 52.917 0 0 0 0.0271 5e-3c5e-3 -9e-3 0.01-0.0172 0.0146-0.0263l28.273-39.806-0.0967 0.0555a21.167 21.167 0 0 1-15.796 9.1018l-0.0523 0.0299-48.75 2.7143a52.917 52.917 0 0 0 13.452 16.87l-3.9181 15.518a67.733 67.733 0 0 0 8.254 4.8144z" fill="#1facc7"/>
    <path d="m150.3 209.33a67.733 67.733 0 0 0 8.2572-4.802l-3.917-15.517a52.917 52.917 0 0 0 0.0208-0.0181c-4e-3 -0.01-7e-3 -0.0185-0.0115-0.0278l-13.493-46.924-0.0169 0.1102a21.167 21.167 0 0 1-2.7327 18.025l-9e-3 0.0595-28.273 39.806a52.917 52.917 0 0 0 21.576 2e-3l9.6895 12.739a67.733 67.733 0 0 0 8.9104-3.4514z" fill="#53b002"/>
    <path d="m186.95 163.38a67.733 67.733 0 0 0 1.394-9.4497l-14.574-6.6125a52.917 52.917 0 0 0-1e-3 -0.0276c-0.0103-3e-3 -0.0188-6e-3 -0.0289-8e-3l-45.099-18.708 0.0756 0.0819a21.167 21.167 0 0 1 12.388 13.375l0.0409 0.0441 13.493 46.924a52.917 52.917 0 0 0 13.454-16.868l16.001 0.36714a67.733 67.733 0 0 0 2.8572-9.1183z" fill="#edc400"/>
    <path d="m173.87 106.08a67.733 67.733 0 0 0-6.5188-6.9818l-14.257 7.2715a52.917 52.917 0 0 0-0.0222-0.0164c-9e-3 6e-3 -0.0164 0.011-0.0243 0.0176l-42.745 23.596 0.11117-8e-3a21.167 21.167 0 0 1 18.181-1.3463l0.06-4e-3 45.099 18.708a52.917 52.917 0 0 0-4.7988-21.036l10.264-12.281a67.733 67.733 0 0 0-5.3475-7.919z" fill="#f87f00"/>
    <path transform="matrix(.26458 0 0 .26458 53.232 78.911)" d="m255.81 190.27a72 72 0 0 0-72 72 72 72 0 0 0 72 72 72 72 0 0 0 0.0137 0v-144a72 72 0 0 0-0.0137 0z" fill="#fff" stroke="#000" stroke-width="1.1589"/>
    <path d="m120.92 167.35a19.05 19.05 0 0 0 19.05-19.05 19.05 19.05 0 0 0-19.05-19.05 19.05 19.05 0 0 0-4e-3 0v38.1a19.05 19.05 0 0 0 4e-3 0z" stroke="#000" stroke-width=".30663"/>
   </g>
  </g>
 </g>
</svg>
