<svg version="1.1" viewBox="0 0 32 32" xmlns="http://www.w3.org/2000/svg">
 <defs>
  <linearGradient id="b" x1="40.2" x2="40.2" y1="-22.314" y2="-40.603" gradientTransform="matrix(1.1,0,0,1,-1.6,55.382)" gradientUnits="userSpaceOnUse">
   <stop stop-color="#ffc8c8" offset="0"/>
   <stop stop-color="#d54040" offset="1"/>
  </linearGradient>
  <radialGradient id="a" cx="39.615" cy="-50.163" r="4.4918" gradientTransform="matrix(.94488 0 0 .86884 -21.675 48.687)" gradientUnits="userSpaceOnUse">
   <stop stop-color="#fff" offset="0"/>
   <stop stop-color="#ff8080" offset="1"/>
  </radialGradient>
 </defs>
 <circle cx="16" cy="16" r="16" fill="#802929" opacity=".65"/>
 <ellipse cx="16" cy="16.5" rx="15.5" ry="14.5" fill="#eb4040" fill-opacity=".8" opacity=".65"/>
 <ellipse cx="16" cy="23.5" rx="11" ry="7" fill="url(#b)" stroke-width="1.0488" opacity=".65"/>
 <ellipse cx="16" cy="6.25" rx="5" ry="4.25" fill="url(#a)" stroke-width=".18121" opacity=".65"/>
 <path d="m8.0077 8.0005h1.9992c0.027-1.6e-4 0.043-9.6e-4 0.061 0 0.51 0.0227 1.0194 0.25707 1.3747 0.62497l4.5606 4.5624 4.6232-4.5624c0.531-0.46097 0.893-0.61098 1.3744-0.62497h1.9992v2c0 0.57292-0.069 1.1012-0.4998 1.4999l-4.5606 4.5624 4.4982 4.4998c0.3761 0.37634 0.5622 0.90688 0.5622 1.4375v2h-1.9992c-0.5305-3e-5 -1.0607-0.18615-1.437-0.56249l-4.5607-4.5624-4.5606 4.5624c-0.3764 0.37638-0.9066 0.56249-1.437 0.56249h-1.9992v-2c0-0.53057 0.1866-1.0611 0.5621-1.4375l4.561-4.4998-4.561-4.5624c-0.4211-0.38927-0.6058-0.93848-0.5621-1.4999v-2z" color="#bebebe" stroke-width=".16" opacity=".65"/>
</svg>
