<svg version="1.1" viewBox="0 0 32 23" xmlns="http://www.w3.org/2000/svg">
 <defs>
  <clipPath id="a">
   <rect x="-7" width="48" height="23" opacity=".45"/>
  </clipPath>
 </defs>
 <g clip-path="url(#a)">
  <g fill="none" stroke="#000">
   <rect x=".5" y="-8.3" width="31" height="31" rx="8" ry="8" opacity=".013"/>
   <rect x="1.5" y="-7.3" width="29" height="29" rx="7" ry="7" opacity=".0455"/>
   <rect x="2.5" y="-6.3" width="27" height="27" rx="6" ry="6" opacity=".0845"/>
   <rect x="3.5" y="-5.3" width="25" height="25" rx="5" ry="5" opacity=".13"/>
   <rect x="4.5" y="-4.3" width="23" height="22" rx="2" ry="2" opacity=".72"/>
  </g>
  <rect x="5" y="-3.8" width="22" height="21" rx="1.4" ry="1.4" fill="#3c4049" opacity=".95"/>
  <path d="m5.6485 17.504c0.72475 0.73691 1.7315 1.1953 2.8516 1.1953h15c1.12 0 2.1268-0.4584 2.8516-1.1953-0.2591 0.12217-0.5451 0.19531-0.85156 0.19531h-19c-0.30646 0-0.59246-0.0731-0.85156-0.19531z" fill="none" opacity=".25" stroke="#000"/>
 </g>
</svg>
