<svg version="1.1" viewBox="0 0 50 20" xmlns="http://www.w3.org/2000/svg">
 <rect width="50" height="20" rx="12.5" ry="12.5" fill="#ffff01"/>
 <rect x="2" y="3" width="16" height="16" rx="8" ry="8" fill-opacity=".2"/>
 <rect x="2" y="2" width="16" height="16" rx="8" ry="8" fill="#00ff01"/>
 <path d="m37.004 6.0002h0.9996c0.01333-1.2e-4 0.02133-4.667e-4 0.03066 0 0.25483 0.010666 0.50966 0.12853 0.6872 0.31248l2.2804 2.2812 2.3115-2.2812c0.26563-0.23049 0.44649-0.30548 0.68733-0.31248h0.9996v0.99997c0 0.28646-0.03466 0.55062-0.2499 0.74998l-2.2804 2.2812 2.2491 2.2499c0.18819 0.18817 0.28122 0.45344 0.28122 0.71874v0.99997h-0.9996c-0.26523-1.3e-5 -0.53046-0.09306-0.71852-0.28124l-2.2803-2.2812-2.2804 2.2812c-0.18806 0.18818-0.45329 0.28124-0.71838 0.28124h-0.9996v-0.99997c0-0.26529 0.09329-0.53057 0.28109-0.71874l2.2803-2.2499-2.2803-2.2812c-0.21072-0.19463-0.30308-0.46924-0.28109-0.74998v-0.99997z" color="#fff" fill="#fff"/>
</svg>
